# xmcd
#
# Track frame offsets: 
#        150
#        18122
#        37714
#        55925
#        73416
#        93862
#        112176
#        128946
#        146517
#        166294
#        187638
#        202443
#        219086
#        249599
#
# Disc length: 3553 seconds
#
# Revision: 4
# Processed by: cddbd v1.5.2PL0 Copyright (c) Steve Scherf et al.
# Submitted via: ExactAudioCopyFreeDBPlugin 1.0
#
DISCID=c30ddf0e
DTITLE=Chrisette Michele - I Am
DYEAR=2007
DGENRE=R&B
TTITLE0=Like A Dream
TTITLE1=Works It Out
TTITLE2=If I Have My Way
TTITLE3=Best Of Me
TTITLE4=Your Joy
TTITLE5=Good Girl
TTITLE6=Be OK (feat. will.i.am)
TTITLE7=Mr. Radio
TTITLE8=Golden
TTITLE9=Let's Rock
TTITLE10=Love Is You
TTITLE11=In This For You
TTITLE12=Is This The Way Love Feels
TTITLE13=I Am One (Bonus Track)
EXTD=YEAR: 2007
EXTT0=
EXTT1=
EXTT2=
EXTT3=
EXTT4=
EXTT5=
EXTT6=
EXTT7=
EXTT8=
EXTT9=
EXTT10=
EXTT11=
EXTT12=
EXTT13=
PLAYORDER=
